<?xml version="1.0" encoding="iso-8859-1"?>
<!-- Generator: Adobe Illustrator 19.0.0, SVG Export Plug-In . SVG Version: 6.00 Build 0)  -->
<!-- License: CC0. Made by SVG Repo: https://www.svgrepo.com/svg/93601/dice -->
<svg version="1.1" id="Layer_1" xmlns="http://www.w3.org/2000/svg" xmlns:xlink="http://www.w3.org/1999/xlink" x="0px" y="0px"
	 viewBox="0 0 512 512" style="enable-background:new 0 0 512 512;" xml:space="preserve">
<g id="SVGCleanerId_0">
	<g>
		<path d="M450.805,0H61.195C27.452,0,0,27.452,0,61.195v389.61C0,484.548,27.452,512,61.195,512h389.61
			C484.548,512,512,484.548,512,450.805V61.195C512,27.452,484.548,0,450.805,0z M491.602,450.805
			c0,22.495-18.301,40.797-40.797,40.797H61.195c-22.495,0-40.797-18.301-40.797-40.797V61.195
			c0-22.495,18.301-40.797,40.797-40.797h389.61c22.495,0,40.797,18.301,40.797,40.797V450.805z"/>
	</g>
</g>
<g>
	<g>
		<path d="M450.805,0H61.195C27.452,0,0,27.452,0,61.195v389.61C0,484.548,27.452,512,61.195,512h389.61
			C484.548,512,512,484.548,512,450.805V61.195C512,27.452,484.548,0,450.805,0z M491.602,450.805
			c0,22.495-18.301,40.797-40.797,40.797H61.195c-22.495,0-40.797-18.301-40.797-40.797V61.195
			c0-22.495,18.301-40.797,40.797-40.797h389.61c22.495,0,40.797,18.301,40.797,40.797V450.805z"/>
	</g>
</g>

</svg>
